<svg width="24" height="24" viewBox="0 0 24 24" fill="none" xmlns="http://www.w3.org/2000/svg">
<path fill-rule="evenodd" clip-rule="evenodd" d="M11.86 14H5.5C5.31203 13.9998 5.14004 13.8943 5.0548 13.7267C4.96956 13.5592 4.98548 13.358 5.096 13.206L13.096 2.206C13.419 1.761 14.118 2.088 13.986 2.621L12.14 10H18.5C18.688 10.0002 18.86 10.1057 18.9452 10.2733C19.0304 10.4408 19.0145 10.642 18.904 10.794L10.904 21.794C10.581 22.239 9.882 21.912 10.014 21.379L11.86 14ZM12.39 4.875L6.483 13H12.5C12.6539 13 12.7992 13.071 12.8939 13.1922C12.9886 13.3135 13.0222 13.4717 12.985 13.621L11.609 19.125L17.52 11H11.5C11.3461 11 11.2008 10.9291 11.1061 10.8078C11.0114 10.6865 10.9778 10.5283 11.015 10.379L12.391 4.875H12.39Z" fill="#121924"/>
</svg>
