<svg width="12" height="13" viewBox="0 0 12 13" fill="none" xmlns="http://www.w3.org/2000/svg">
<path fill-rule="evenodd" clip-rule="evenodd" d="M8.66667 1.66659H3.33333V1.99992C3.33333 2.18401 3.18409 2.33325 3 2.33325C2.81591 2.33325 2.66667 2.18401 2.66667 1.99992V1.66659H1.66667C1.11438 1.66659 0.666667 2.1143 0.666667 2.66659V4.33325H11.3333V2.66659C11.3333 2.1143 10.8856 1.66659 10.3333 1.66659H9.33333V1.99992C9.33333 2.18401 9.18409 2.33325 9 2.33325C8.8159 2.33325 8.66667 2.18401 8.66667 1.99992V1.66659ZM9.33333 0.999919H10.3333C11.2538 0.999919 12 1.74611 12 2.66659V11.3379C12 12.2584 11.2538 13.0046 10.3333 13.0046H1.66667C0.746192 13.0046 0 12.2584 0 11.3379V2.66659C0 1.74611 0.746192 0.999919 1.66667 0.999919H2.66667V0.666585C2.66667 0.48249 2.81591 0.333252 3 0.333252C3.1841 0.333252 3.33333 0.48249 3.33333 0.666585V0.999919H8.66667V0.666585C8.66667 0.48249 8.81591 0.333252 9 0.333252C9.1841 0.333252 9.33333 0.48249 9.33333 0.666585V0.999919ZM11.3333 4.99992H0.666667V11.3379C0.666667 11.8902 1.11438 12.3379 1.66667 12.3379H10.3333C10.8856 12.3379 11.3333 11.8902 11.3333 11.3379V4.99992Z" fill="#C5CEE0"/>
</svg>
