<svg width="12" height="12" viewBox="0 0 12 12" fill="none" xmlns="http://www.w3.org/2000/svg">
<path fill-rule="evenodd" clip-rule="evenodd" d="M1.66667 0H10.3333C11.2538 0 12 0.746192 12 1.66667V10.3333C12 11.2538 11.2538 12 10.3333 12H1.66667C0.746192 12 0 11.2538 0 10.3333V1.66667C0 0.746192 0.746192 0 1.66667 0ZM1.66667 0.666667C1.11438 0.666667 0.666667 1.11438 0.666667 1.66667V10.3333C0.666667 10.8856 1.11438 11.3333 1.66667 11.3333H10.3333C10.8856 11.3333 11.3333 10.8856 11.3333 10.3333V1.66667C11.3333 1.11438 10.8856 0.666667 10.3333 0.666667H1.66667ZM8.09733 4.09733C8.22767 3.96699 8.43899 3.96699 8.56933 4.09733C8.69967 4.22767 8.69967 4.43899 8.56933 4.56933L5.236 7.90267C5.17346 7.96536 5.08855 8.0006 5 8.0006C4.91145 8.0006 4.82654 7.96536 4.764 7.90267L3.43067 6.56933C3.30033 6.43899 3.30033 6.22767 3.43067 6.09733C3.56101 5.96699 3.77233 5.96699 3.90267 6.09733L5 7.19533L8.09733 4.09733Z" fill="#C5CEE0"/>
</svg>
