<svg width="24" height="24" viewBox="0 0 24 24" fill="none" xmlns="http://www.w3.org/2000/svg">
<path fill-rule="evenodd" clip-rule="evenodd" d="M12 22C6.477 22 2 17.523 2 12C2 6.477 6.477 2 12 2C17.523 2 22 6.477 22 12C22 17.523 17.523 22 12 22ZM12 21C15.2154 21 18.1865 19.2846 19.7942 16.5C21.4019 13.7154 21.4019 10.2846 19.7942 7.5C18.1865 4.71539 15.2154 3 12 3C7.02944 3 3 7.02944 3 12C3 16.9706 7.02944 21 12 21ZM6.5 10C6.22386 10 6 9.77614 6 9.5C6 9.22386 6.22386 9 6.5 9H17.5C17.7761 9 18 9.22386 18 9.5C18 9.77614 17.7761 10 17.5 10H6.5ZM8.5 13C8.22386 13 8 12.7761 8 12.5C8 12.2239 8.22386 12 8.5 12H15.5C15.7761 12 16 12.2239 16 12.5C16 12.7761 15.7761 13 15.5 13H8.5ZM10.5 16C10.2239 16 10 15.7761 10 15.5C10 15.2239 10.2239 15 10.5 15H13.5C13.7761 15 14 15.2239 14 15.5C14 15.7761 13.7761 16 13.5 16H10.5Z" fill="#007AFF"/>
</svg>
