<svg width="24" height="24" viewBox="0 0 24 24" fill="none" xmlns="http://www.w3.org/2000/svg">
<path fill-rule="evenodd" clip-rule="evenodd" d="M7.36031 20.9937C7.48598 20.9727 7.61508 20.9906 7.73031 21.045C12.2847 23.1957 17.7279 21.6236 20.4342 17.3758C23.1406 13.1279 22.2653 7.53026 18.3915 4.31131C14.5176 1.09235 8.85433 1.25684 5.17384 4.69522C1.49336 8.1336 0.944478 13.7726 3.89281 17.8562C4.02442 18.0382 4.04828 18.2768 3.95531 18.4812L2.43281 21.815L7.36031 20.9937ZM1.4778 23.2412C1.25013 23.279 1.0202 23.1882 0.879741 23.0051C0.739277 22.822 0.711139 22.5764 0.806552 22.3662L2.66905 18.2875C-0.46606 13.6321 0.309721 7.37814 4.48727 3.62988C8.66482 -0.118384 14.966 -0.214136 19.2555 3.40546C23.545 7.02506 24.5105 13.2526 21.5183 18.0011C18.5261 22.7495 12.4917 24.5662 7.3753 22.2587L1.4778 23.2412Z" fill="#C5CEE0"/>
</svg>
