<svg width="20" height="20" viewBox="0 0 20 20" fill="none" xmlns="http://www.w3.org/2000/svg">
<path fill-rule="evenodd" clip-rule="evenodd" d="M13.8475 11.1751L18.1688 13.1401C19.2842 13.6474 20.0002 14.7598 20 15.9851V16.8751C20 18.601 18.6009 20.0001 16.875 20.0001H3.125C1.39911 20.0001 2.38344e-08 18.601 2.38344e-08 16.8751V15.9851C-0.000150835 14.7598 0.715849 13.6474 1.83125 13.1401L6.1525 11.1763C4.05027 9.53416 3.22204 6.73872 4.09043 4.21641C4.95882 1.6941 7.33239 0.000976563 10 0.000976562C12.6676 0.000976562 15.0412 1.6941 15.9096 4.21641C16.778 6.73872 15.9497 9.53416 13.8475 11.1763V11.1751ZM7.45125 11.9588L2.35 14.2776C1.68011 14.5817 1.24994 15.2494 1.25 15.9851V16.8751C1.25 17.9106 2.08947 18.7501 3.125 18.7501H16.875C17.9105 18.7501 18.75 17.9106 18.75 16.8751V15.9851C18.7501 15.2494 18.3199 14.5817 17.65 14.2776L12.5488 11.9588C11.7468 12.317 10.8782 12.5014 10 12.5001C9.12176 12.5014 8.25316 12.317 7.45125 11.9588ZM10 11.2501C12.7614 11.2501 15 9.01151 15 6.25009C15 3.48866 12.7614 1.25009 10 1.25009C7.23858 1.25009 5 3.48866 5 6.25009C5 9.01151 7.23858 11.2501 10 11.2501Z" fill="#C5CEE0"/>
</svg>
