<svg width="18" height="24" viewBox="0 0 18 24" fill="none" xmlns="http://www.w3.org/2000/svg">
<path fill-rule="evenodd" clip-rule="evenodd" d="M6.5 2.625C6.5 2.97018 6.22018 3.25 5.875 3.25C5.52982 3.25 5.25 2.97018 5.25 2.625C5.25 1.58947 6.08947 0.75 7.125 0.75H10.875C11.9105 0.75 12.75 1.58947 12.75 2.625C12.75 2.97018 12.4702 3.25 12.125 3.25C11.7798 3.25 11.5 2.97018 11.5 2.625C11.5 2.27982 11.2202 2 10.875 2H7.125C6.77982 2 6.5 2.27982 6.5 2.625ZM3.375 2C3.72018 2 4 2.27982 4 2.625C4 2.97018 3.72018 3.25 3.375 3.25C2.33947 3.25 1.5 4.08947 1.5 5.125V20.125C1.5 21.1605 2.33947 22 3.375 22H14.625C15.6605 22 16.5 21.1605 16.5 20.125V5.125C16.5 4.08947 15.6605 3.25 14.625 3.25C14.2798 3.25 14 2.97018 14 2.625C14 2.27982 14.2798 2 14.625 2C16.3509 2 17.75 3.39911 17.75 5.125V20.125C17.75 21.8509 16.3509 23.25 14.625 23.25H3.375C1.64911 23.25 0.25 21.8509 0.25 20.125V5.125C0.25 3.39911 1.64911 2 3.375 2ZM4 8.875C4 9.22018 4.27982 9.5 4.625 9.5H13.375C13.7202 9.5 14 9.22018 14 8.875C14 8.52982 13.7202 8.25 13.375 8.25H4.625C4.27982 8.25 4 8.52982 4 8.875ZM4 12.625C4 12.9702 4.27982 13.25 4.625 13.25H13.375C13.7202 13.25 14 12.9702 14 12.625C14 12.2798 13.7202 12 13.375 12H4.625C4.27982 12 4 12.2798 4 12.625ZM4.625 17C4.27982 17 4 16.7202 4 16.375C4 16.0298 4.27982 15.75 4.625 15.75H10.875C11.2202 15.75 11.5 16.0298 11.5 16.375C11.5 16.7202 11.2202 17 10.875 17H4.625Z" fill="#C5CEE0"/>
</svg>
