<svg width="10" height="12" viewBox="0 0 10 12" fill="none" xmlns="http://www.w3.org/2000/svg">
<path fill-rule="evenodd" clip-rule="evenodd" d="M4.99967 7.33333C3.52692 7.33333 2.33301 6.13943 2.33301 4.66667C2.33301 3.19391 3.52692 2 4.99967 2C6.47243 2 7.66634 3.19391 7.66634 4.66667C7.66634 6.13943 6.47243 7.33333 4.99967 7.33333ZM4.99967 6.66667C6.10424 6.66667 6.99967 5.77124 6.99967 4.66667C6.99967 3.5621 6.10424 2.66667 4.99967 2.66667C3.89511 2.66667 2.99967 3.5621 2.99967 4.66667C2.99967 5.77124 3.89511 6.66667 4.99967 6.66667ZM5.22634 11.9113C5.09849 12.0299 4.90086 12.0299 4.77301 11.9113C1.82367 9.188 0.333008 6.78133 0.333008 4.66667C0.333008 2.99943 1.22247 1.45883 2.66634 0.625215C4.11021 -0.208405 5.88914 -0.208405 7.33301 0.625215C8.77688 1.45883 9.66634 2.99943 9.66634 4.66667C9.66634 6.78133 8.17634 9.188 5.22634 11.9113ZM8.99967 4.66667C8.99967 2.45753 7.20881 0.666667 4.99967 0.666667C2.79054 0.666667 0.999675 2.45753 0.999675 4.66667C0.999675 6.50133 2.32434 8.69 4.99967 11.2107C7.67501 8.69067 8.99967 6.50133 8.99967 4.66667Z" fill="#C5CEE0"/>
</svg>
