<svg width="18" height="18" viewBox="0 0 18 18" fill="none" xmlns="http://www.w3.org/2000/svg">
<path fill-rule="evenodd" clip-rule="evenodd" d="M14.0003 13.2921L17.8543 17.1461C18.0498 17.3416 18.0498 17.6586 17.8543 17.8541C17.6588 18.0496 17.3418 18.0496 17.1463 17.8541L13.2923 13.9991C10.052 16.8575 5.12742 16.6264 2.16908 13.477C-0.789261 10.3277 -0.712194 5.39825 2.34315 2.34291C5.3985 -0.712438 10.3279 -0.789505 13.4773 2.16884C16.6266 5.12718 16.8577 10.0518 13.9993 13.2921H14.0003ZM8.0003 15.0001C10.5012 15.0001 12.8121 13.6659 14.0625 11.5001C15.3129 9.33425 15.3129 6.66587 14.0625 4.50006C12.8121 2.33425 10.5012 1.00006 8.0003 1.00006C4.13431 1.00006 1.0003 4.13407 1.0003 8.00006C1.0003 11.8661 4.13431 15.0001 8.0003 15.0001Z" fill="#007AFF"/>
</svg>
