<svg width="14" height="14" viewBox="0 0 14 14" fill="none" xmlns="http://www.w3.org/2000/svg">
<path fill-rule="evenodd" clip-rule="evenodd" d="M4.24567 6.53258L1.54167 7.92392C1.20871 8.09546 0.999532 8.4387 0.999674 8.81325V9.33325C0.999674 9.88554 1.44739 10.3333 1.99967 10.3333C2.18377 10.3333 2.33301 10.4825 2.33301 10.6666C2.33301 10.8507 2.18377 10.9999 1.99967 10.9999C1.0792 10.9999 0.333008 10.2537 0.333008 9.33325V8.81325C0.332982 8.18893 0.681884 7.61694 1.23701 7.33125L3.47567 6.17925C2.50109 5.32884 2.10645 3.99139 2.46327 2.74813C2.82008 1.50486 3.86392 0.580252 5.14116 0.376109C6.41841 0.171965 7.69844 0.725144 8.42501 1.79525C8.49411 1.89371 8.5048 2.02176 8.45299 2.13031C8.40118 2.23887 8.2949 2.31109 8.1749 2.3193C8.05489 2.3275 7.93978 2.27041 7.87367 2.16992C7.26157 1.26826 6.16241 0.82979 5.09776 1.06258C4.03311 1.29536 3.21725 2.15255 3.03731 3.22739C2.85737 4.30223 3.34956 5.37841 4.28034 5.94525C4.38507 6.00956 4.44591 6.12628 4.43866 6.24896C4.43141 6.37165 4.35725 6.48039 4.24567 6.53192V6.53258ZM6.97367 9.37792L4.25301 10.6146C3.89573 10.7768 3.66631 11.1329 3.66634 11.5253V11.9999C3.66634 12.2651 3.7717 12.5195 3.95923 12.707C4.14677 12.8946 4.40112 12.9999 4.66634 12.9999H11.9997C12.552 12.9999 12.9997 12.5522 12.9997 11.9999V11.5253C12.9997 11.1329 12.7703 10.7768 12.413 10.6146L9.69234 9.37792C9.26465 9.56891 8.8014 9.66729 8.33301 9.66658C7.86461 9.66729 7.40136 9.56891 6.97367 9.37792ZM6.28101 8.96058C5.15982 8.08476 4.7181 6.59385 5.18124 5.24862C5.64438 3.90339 6.91028 3.00039 8.33301 3.00039C9.75573 3.00039 11.0216 3.90339 11.4848 5.24862C11.9479 6.59385 11.5062 8.08476 10.385 8.96058L12.6897 10.0073C13.285 10.278 13.6669 10.8719 13.6663 11.5259V12.0006C13.6663 12.4426 13.4907 12.8665 13.1782 13.1791C12.8656 13.4917 12.4417 13.6673 11.9997 13.6673H4.66634C4.2242 13.6673 3.80017 13.4916 3.48759 13.1789C3.17501 12.8662 2.9995 12.4421 2.99967 11.9999V11.5253C2.99959 10.8717 3.38146 10.2785 3.97634 10.0079L6.28101 8.96058V8.96058ZM8.33301 8.99992C9.80577 8.99992 10.9997 7.80601 10.9997 6.33325C10.9997 4.86049 9.80577 3.66658 8.33301 3.66658C6.86025 3.66658 5.66634 4.86049 5.66634 6.33325C5.66634 7.80601 6.86025 8.99992 8.33301 8.99992Z" fill="#C5CEE0"/>
</svg>
